<svg xmlns="http://www.w3.org/2000/svg" viewBox="0 0 400 800" preserveAspectRatio="xMidYMid slice"><defs><linearGradient id="sky" x1="0" y1="0" x2="0" y2="1"><stop offset="0" stop-color="#bae6fd"/><stop offset="1" stop-color="#e0f2fe"/></linearGradient><linearGradient id="g1" x1="0" y1="0" x2="0" y2="1"><stop offset="0" stop-color="#86efac"/><stop offset="1" stop-color="#4ade80"/></linearGradient><linearGradient id="g2" x1="0" y1="0" x2="0" y2="1"><stop offset="0" stop-color="#4ade80"/><stop offset="1" stop-color="#22a55a"/></linearGradient><radialGradient id="vig" cx=".5" cy=".5" r=".75"><stop offset=".55" stop-color="#000" stop-opacity="0"/><stop offset="1" stop-color="#14532d" stop-opacity=".35"/></radialGradient></defs><rect width="400" height="800" fill="url(#sky)"/><circle cx="330" cy="70" r="36" fill="#fef9c3"/><circle cx="330" cy="70" r="60" fill="#fef9c3" opacity=".35"/><g transform="translate(80 80) scale(1)" fill="#fff"><ellipse rx="40" ry="16"/><ellipse cx="-22" cy="-8" rx="22" ry="16"/><ellipse cx="14" cy="-14" rx="26" ry="20"/></g><g transform="translate(230 130) scale(0.8)" fill="#fff"><ellipse rx="40" ry="16"/><ellipse cx="-22" cy="-8" rx="22" ry="16"/><ellipse cx="14" cy="-14" rx="26" ry="20"/></g><path d="M0 220C100 180 250 200 400 190V800H0Z" fill="url(#g1)"/><path d="M0 330C120 290 260 320 400 300V800H0Z" fill="url(#g2)" opacity=".85"/><path d="M66 623q2 -8 3 -14" stroke="#15803d" stroke-width="1.6" fill="none" opacity=".5"/><path d="M192 353q2 -8 3 -14" stroke="#15803d" stroke-width="1.6" fill="none" opacity=".5"/><path d="M323 522q2 -8 -3 -14" stroke="#15803d" stroke-width="1.6" fill="none" opacity=".5"/><path d="M315 238q2 -8 3 -14" stroke="#15803d" stroke-width="1.6" fill="none" opacity=".5"/><path d="M28 682q2 -8 -3 -14" stroke="#15803d" stroke-width="1.6" fill="none" opacity=".5"/><path d="M369 626q2 -8 3 -14" stroke="#15803d" stroke-width="1.6" fill="none" opacity=".5"/><path d="M399 651q2 -8 3 -14" stroke="#15803d" stroke-width="1.6" fill="none" opacity=".5"/><path d="M246 249q2 -8 3 -14" stroke="#15803d" stroke-width="1.6" fill="none" opacity=".5"/><path d="M216 626q2 -8 3 -14" stroke="#15803d" stroke-width="1.6" fill="none" opacity=".5"/><path d="M9 652q2 -8 -3 -14" stroke="#15803d" stroke-width="1.6" fill="none" opacity=".5"/><path d="M50 759q2 -8 3 -14" stroke="#15803d" stroke-width="1.6" fill="none" opacity=".5"/><path d="M64 645q2 -8 3 -14" stroke="#15803d" stroke-width="1.6" fill="none" opacity=".5"/><path d="M194 337q2 -8 -3 -14" stroke="#15803d" stroke-width="1.6" fill="none" opacity=".5"/><path d="M188 697q2 -8 -3 -14" stroke="#15803d" stroke-width="1.6" fill="none" opacity=".5"/><path d="M312 349q2 -8 -3 -14" stroke="#15803d" stroke-width="1.6" fill="none" opacity=".5"/><path d="M49 502q2 -8 3 -14" stroke="#15803d" stroke-width="1.6" fill="none" opacity=".5"/><path d="M80 756q2 -8 3 -14" stroke="#15803d" stroke-width="1.6" fill="none" opacity=".5"/><path d="M117 774q2 -8 3 -14" stroke="#15803d" stroke-width="1.6" fill="none" opacity=".5"/><path d="M127 506q2 -8 3 -14" stroke="#15803d" stroke-width="1.6" fill="none" opacity=".5"/><path d="M11 283q2 -8 3 -14" stroke="#15803d" stroke-width="1.6" fill="none" opacity=".5"/><path d="M1 270q2 -8 -3 -14" stroke="#15803d" stroke-width="1.6" fill="none" opacity=".5"/><path d="M229 412q2 -8 -3 -14" stroke="#15803d" stroke-width="1.6" fill="none" opacity=".5"/><path d="M72 327q2 -8 3 -14" stroke="#15803d" stroke-width="1.6" fill="none" opacity=".5"/><path d="M333 419q2 -8 3 -14" stroke="#15803d" stroke-width="1.6" fill="none" opacity=".5"/><path d="M98 326q2 -8 -3 -14" stroke="#15803d" stroke-width="1.6" fill="none" opacity=".5"/><path d="M311 444q2 -8 -3 -14" stroke="#15803d" stroke-width="1.6" fill="none" opacity=".5"/><path d="M270 742q2 -8 -3 -14" stroke="#15803d" stroke-width="1.6" fill="none" opacity=".5"/><path d="M163 794q2 -8 -3 -14" stroke="#15803d" stroke-width="1.6" fill="none" opacity=".5"/><path d="M353 510q2 -8 3 -14" stroke="#15803d" stroke-width="1.6" fill="none" opacity=".5"/><path d="M267 764q2 -8 -3 -14" stroke="#15803d" stroke-width="1.6" fill="none" opacity=".5"/><path d="M65 270q2 -8 3 -14" stroke="#15803d" stroke-width="1.6" fill="none" opacity=".5"/><path d="M310 505q2 -8 3 -14" stroke="#15803d" stroke-width="1.6" fill="none" opacity=".5"/><path d="M21 377q2 -8 3 -14" stroke="#15803d" stroke-width="1.6" fill="none" opacity=".5"/><path d="M14 372q2 -8 3 -14" stroke="#15803d" stroke-width="1.6" fill="none" opacity=".5"/><path d="M28 423q2 -8 -3 -14" stroke="#15803d" stroke-width="1.6" fill="none" opacity=".5"/><path d="M393 655q2 -8 3 -14" stroke="#15803d" stroke-width="1.6" fill="none" opacity=".5"/><path d="M20 310q2 -8 3 -14" stroke="#15803d" stroke-width="1.6" fill="none" opacity=".5"/><path d="M11 351q2 -8 3 -14" stroke="#15803d" stroke-width="1.6" fill="none" opacity=".5"/><path d="M318 732q2 -8 3 -14" stroke="#15803d" stroke-width="1.6" fill="none" opacity=".5"/><path d="M194 744q2 -8 3 -14" stroke="#15803d" stroke-width="1.6" fill="none" opacity=".5"/><path d="M123 535q2 -8 3 -14" stroke="#15803d" stroke-width="1.6" fill="none" opacity=".5"/><path d="M56 641q2 -8 3 -14" stroke="#15803d" stroke-width="1.6" fill="none" opacity=".5"/><path d="M274 774q2 -8 -3 -14" stroke="#15803d" stroke-width="1.6" fill="none" opacity=".5"/><path d="M106 416q2 -8 -3 -14" stroke="#15803d" stroke-width="1.6" fill="none" opacity=".5"/><path d="M341 563q2 -8 3 -14" stroke="#15803d" stroke-width="1.6" fill="none" opacity=".5"/><path d="M273 658q2 -8 -3 -14" stroke="#15803d" stroke-width="1.6" fill="none" opacity=".5"/><path d="M53 284q2 -8 -3 -14" stroke="#15803d" stroke-width="1.6" fill="none" opacity=".5"/><path d="M75 596q2 -8 -3 -14" stroke="#15803d" stroke-width="1.6" fill="none" opacity=".5"/><path d="M29 298q2 -8 3 -14" stroke="#15803d" stroke-width="1.6" fill="none" opacity=".5"/><path d="M51 537q2 -8 3 -14" stroke="#15803d" stroke-width="1.6" fill="none" opacity=".5"/><path d="M159 736q2 -8 -3 -14" stroke="#15803d" stroke-width="1.6" fill="none" opacity=".5"/><path d="M73 719q2 -8 -3 -14" stroke="#15803d" stroke-width="1.6" fill="none" opacity=".5"/><path d="M284 544q2 -8 -3 -14" stroke="#15803d" stroke-width="1.6" fill="none" opacity=".5"/><path d="M242 518q2 -8 -3 -14" stroke="#15803d" stroke-width="1.6" fill="none" opacity=".5"/><path d="M316 234q2 -8 3 -14" stroke="#15803d" stroke-width="1.6" fill="none" opacity=".5"/><path d="M346 457q2 -8 -3 -14" stroke="#15803d" stroke-width="1.6" fill="none" opacity=".5"/><path d="M342 363q2 -8 3 -14" stroke="#15803d" stroke-width="1.6" fill="none" opacity=".5"/><path d="M298 369q2 -8 -3 -14" stroke="#15803d" stroke-width="1.6" fill="none" opacity=".5"/><path d="M124 743q2 -8 3 -14" stroke="#15803d" stroke-width="1.6" fill="none" opacity=".5"/><path d="M327 688q2 -8 3 -14" stroke="#15803d" stroke-width="1.6" fill="none" opacity=".5"/><path d="M379 286q2 -8 -3 -14" stroke="#15803d" stroke-width="1.6" fill="none" opacity=".5"/><path d="M203 649q2 -8 3 -14" stroke="#15803d" stroke-width="1.6" fill="none" opacity=".5"/><path d="M117 586q2 -8 -3 -14" stroke="#15803d" stroke-width="1.6" fill="none" opacity=".5"/><path d="M25 694q2 -8 -3 -14" stroke="#15803d" stroke-width="1.6" fill="none" opacity=".5"/><path d="M142 411q2 -8 3 -14" stroke="#15803d" stroke-width="1.6" fill="none" opacity=".5"/><path d="M43 273q2 -8 -3 -14" stroke="#15803d" stroke-width="1.6" fill="none" opacity=".5"/><path d="M251 690q2 -8 3 -14" stroke="#15803d" stroke-width="1.6" fill="none" opacity=".5"/><path d="M202 770q2 -8 3 -14" stroke="#15803d" stroke-width="1.6" fill="none" opacity=".5"/><path d="M188 522q2 -8 3 -14" stroke="#15803d" stroke-width="1.6" fill="none" opacity=".5"/><path d="M28 244q2 -8 3 -14" stroke="#15803d" stroke-width="1.6" fill="none" opacity=".5"/><path d="M17 387q2 -8 3 -14" stroke="#15803d" stroke-width="1.6" fill="none" opacity=".5"/><path d="M290 490q2 -8 -3 -14" stroke="#15803d" stroke-width="1.6" fill="none" opacity=".5"/><path d="M160 417q2 -8 -3 -14" stroke="#15803d" stroke-width="1.6" fill="none" opacity=".5"/><path d="M253 779q2 -8 -3 -14" stroke="#15803d" stroke-width="1.6" fill="none" opacity=".5"/><path d="M15 329q2 -8 3 -14" stroke="#15803d" stroke-width="1.6" fill="none" opacity=".5"/><path d="M287 738q2 -8 3 -14" stroke="#15803d" stroke-width="1.6" fill="none" opacity=".5"/><path d="M251 662q2 -8 3 -14" stroke="#15803d" stroke-width="1.6" fill="none" opacity=".5"/><path d="M98 753q2 -8 3 -14" stroke="#15803d" stroke-width="1.6" fill="none" opacity=".5"/><path d="M122 448q2 -8 -3 -14" stroke="#15803d" stroke-width="1.6" fill="none" opacity=".5"/><path d="M65 345q2 -8 3 -14" stroke="#15803d" stroke-width="1.6" fill="none" opacity=".5"/><path d="M287 282q2 -8 -3 -14" stroke="#15803d" stroke-width="1.6" fill="none" opacity=".5"/><path d="M32 402q2 -8 3 -14" stroke="#15803d" stroke-width="1.6" fill="none" opacity=".5"/><path d="M297 494q2 -8 -3 -14" stroke="#15803d" stroke-width="1.6" fill="none" opacity=".5"/><path d="M396 325q2 -8 3 -14" stroke="#15803d" stroke-width="1.6" fill="none" opacity=".5"/><path d="M82 421q2 -8 -3 -14" stroke="#15803d" stroke-width="1.6" fill="none" opacity=".5"/><path d="M104 772q2 -8 3 -14" stroke="#15803d" stroke-width="1.6" fill="none" opacity=".5"/><path d="M206 769q2 -8 -3 -14" stroke="#15803d" stroke-width="1.6" fill="none" opacity=".5"/><path d="M360 519q2 -8 -3 -14" stroke="#15803d" stroke-width="1.6" fill="none" opacity=".5"/><path d="M239 388q2 -8 3 -14" stroke="#15803d" stroke-width="1.6" fill="none" opacity=".5"/><path d="M63 454q2 -8 3 -14" stroke="#15803d" stroke-width="1.6" fill="none" opacity=".5"/><g transform="translate(176 583) scale(0.94)"><ellipse transform="rotate(0)" cy="-8" rx="3" ry="7" fill="#fff"/><ellipse transform="rotate(36)" cy="-8" rx="3" ry="7" fill="#fff"/><ellipse transform="rotate(72)" cy="-8" rx="3" ry="7" fill="#fff"/><ellipse transform="rotate(108)" cy="-8" rx="3" ry="7" fill="#fff"/><ellipse transform="rotate(144)" cy="-8" rx="3" ry="7" fill="#fff"/><ellipse transform="rotate(180)" cy="-8" rx="3" ry="7" fill="#fff"/><ellipse transform="rotate(216)" cy="-8" rx="3" ry="7" fill="#fff"/><ellipse transform="rotate(252)" cy="-8" rx="3" ry="7" fill="#fff"/><ellipse transform="rotate(288)" cy="-8" rx="3" ry="7" fill="#fff"/><ellipse transform="rotate(324)" cy="-8" rx="3" ry="7" fill="#fff"/><circle r="4.5" fill="#facc15"/></g><g transform="translate(76 458) scale(0.94)"><ellipse transform="rotate(0)" cy="-8" rx="3" ry="7" fill="#fff"/><ellipse transform="rotate(36)" cy="-8" rx="3" ry="7" fill="#fff"/><ellipse transform="rotate(72)" cy="-8" rx="3" ry="7" fill="#fff"/><ellipse transform="rotate(108)" cy="-8" rx="3" ry="7" fill="#fff"/><ellipse transform="rotate(144)" cy="-8" rx="3" ry="7" fill="#fff"/><ellipse transform="rotate(180)" cy="-8" rx="3" ry="7" fill="#fff"/><ellipse transform="rotate(216)" cy="-8" rx="3" ry="7" fill="#fff"/><ellipse transform="rotate(252)" cy="-8" rx="3" ry="7" fill="#fff"/><ellipse transform="rotate(288)" cy="-8" rx="3" ry="7" fill="#fff"/><ellipse transform="rotate(324)" cy="-8" rx="3" ry="7" fill="#fff"/><circle r="4.5" fill="#facc15"/></g><g transform="translate(82 769) scale(0.82)"><ellipse transform="rotate(0)" cy="-8" rx="3" ry="7" fill="#fff"/><ellipse transform="rotate(36)" cy="-8" rx="3" ry="7" fill="#fff"/><ellipse transform="rotate(72)" cy="-8" rx="3" ry="7" fill="#fff"/><ellipse transform="rotate(108)" cy="-8" rx="3" ry="7" fill="#fff"/><ellipse transform="rotate(144)" cy="-8" rx="3" ry="7" fill="#fff"/><ellipse transform="rotate(180)" cy="-8" rx="3" ry="7" fill="#fff"/><ellipse transform="rotate(216)" cy="-8" rx="3" ry="7" fill="#fff"/><ellipse transform="rotate(252)" cy="-8" rx="3" ry="7" fill="#fff"/><ellipse transform="rotate(288)" cy="-8" rx="3" ry="7" fill="#fff"/><ellipse transform="rotate(324)" cy="-8" rx="3" ry="7" fill="#fff"/><circle r="4.5" fill="#facc15"/></g><g transform="translate(318 755) scale(1.15)"><ellipse transform="rotate(0)" cy="-8" rx="3" ry="7" fill="#fff"/><ellipse transform="rotate(36)" cy="-8" rx="3" ry="7" fill="#fff"/><ellipse transform="rotate(72)" cy="-8" rx="3" ry="7" fill="#fff"/><ellipse transform="rotate(108)" cy="-8" rx="3" ry="7" fill="#fff"/><ellipse transform="rotate(144)" cy="-8" rx="3" ry="7" fill="#fff"/><ellipse transform="rotate(180)" cy="-8" rx="3" ry="7" fill="#fff"/><ellipse transform="rotate(216)" cy="-8" rx="3" ry="7" fill="#fff"/><ellipse transform="rotate(252)" cy="-8" rx="3" ry="7" fill="#fff"/><ellipse transform="rotate(288)" cy="-8" rx="3" ry="7" fill="#fff"/><ellipse transform="rotate(324)" cy="-8" rx="3" ry="7" fill="#fff"/><circle r="4.5" fill="#facc15"/></g><g transform="translate(17 521) scale(0.82)"><ellipse transform="rotate(0)" cy="-8" rx="3" ry="7" fill="#fff"/><ellipse transform="rotate(36)" cy="-8" rx="3" ry="7" fill="#fff"/><ellipse transform="rotate(72)" cy="-8" rx="3" ry="7" fill="#fff"/><ellipse transform="rotate(108)" cy="-8" rx="3" ry="7" fill="#fff"/><ellipse transform="rotate(144)" cy="-8" rx="3" ry="7" fill="#fff"/><ellipse transform="rotate(180)" cy="-8" rx="3" ry="7" fill="#fff"/><ellipse transform="rotate(216)" cy="-8" rx="3" ry="7" fill="#fff"/><ellipse transform="rotate(252)" cy="-8" rx="3" ry="7" fill="#fff"/><ellipse transform="rotate(288)" cy="-8" rx="3" ry="7" fill="#fff"/><ellipse transform="rotate(324)" cy="-8" rx="3" ry="7" fill="#fff"/><circle r="4.5" fill="#facc15"/></g><g transform="translate(241 628) scale(0.92)"><ellipse transform="rotate(0)" cy="-8" rx="3" ry="7" fill="#fff"/><ellipse transform="rotate(36)" cy="-8" rx="3" ry="7" fill="#fff"/><ellipse transform="rotate(72)" cy="-8" rx="3" ry="7" fill="#fff"/><ellipse transform="rotate(108)" cy="-8" rx="3" ry="7" fill="#fff"/><ellipse transform="rotate(144)" cy="-8" rx="3" ry="7" fill="#fff"/><ellipse transform="rotate(180)" cy="-8" rx="3" ry="7" fill="#fff"/><ellipse transform="rotate(216)" cy="-8" rx="3" ry="7" fill="#fff"/><ellipse transform="rotate(252)" cy="-8" rx="3" ry="7" fill="#fff"/><ellipse transform="rotate(288)" cy="-8" rx="3" ry="7" fill="#fff"/><ellipse transform="rotate(324)" cy="-8" rx="3" ry="7" fill="#fff"/><circle r="4.5" fill="#facc15"/></g><g transform="translate(13 544) scale(0.85)"><ellipse transform="rotate(0)" cy="-8" rx="3" ry="7" fill="#fff"/><ellipse transform="rotate(36)" cy="-8" rx="3" ry="7" fill="#fff"/><ellipse transform="rotate(72)" cy="-8" rx="3" ry="7" fill="#fff"/><ellipse transform="rotate(108)" cy="-8" rx="3" ry="7" fill="#fff"/><ellipse transform="rotate(144)" cy="-8" rx="3" ry="7" fill="#fff"/><ellipse transform="rotate(180)" cy="-8" rx="3" ry="7" fill="#fff"/><ellipse transform="rotate(216)" cy="-8" rx="3" ry="7" fill="#fff"/><ellipse transform="rotate(252)" cy="-8" rx="3" ry="7" fill="#fff"/><ellipse transform="rotate(288)" cy="-8" rx="3" ry="7" fill="#fff"/><ellipse transform="rotate(324)" cy="-8" rx="3" ry="7" fill="#fff"/><circle r="4.5" fill="#facc15"/></g><g transform="translate(350 450) scale(0.87)"><ellipse transform="rotate(0)" cy="-8" rx="3" ry="7" fill="#fff"/><ellipse transform="rotate(36)" cy="-8" rx="3" ry="7" fill="#fff"/><ellipse transform="rotate(72)" cy="-8" rx="3" ry="7" fill="#fff"/><ellipse transform="rotate(108)" cy="-8" rx="3" ry="7" fill="#fff"/><ellipse transform="rotate(144)" cy="-8" rx="3" ry="7" fill="#fff"/><ellipse transform="rotate(180)" cy="-8" rx="3" ry="7" fill="#fff"/><ellipse transform="rotate(216)" cy="-8" rx="3" ry="7" fill="#fff"/><ellipse transform="rotate(252)" cy="-8" rx="3" ry="7" fill="#fff"/><ellipse transform="rotate(288)" cy="-8" rx="3" ry="7" fill="#fff"/><ellipse transform="rotate(324)" cy="-8" rx="3" ry="7" fill="#fff"/><circle r="4.5" fill="#facc15"/></g><g transform="translate(311 694) scale(1.06)"><ellipse transform="rotate(0)" cy="-8" rx="3" ry="7" fill="#fff"/><ellipse transform="rotate(36)" cy="-8" rx="3" ry="7" fill="#fff"/><ellipse transform="rotate(72)" cy="-8" rx="3" ry="7" fill="#fff"/><ellipse transform="rotate(108)" cy="-8" rx="3" ry="7" fill="#fff"/><ellipse transform="rotate(144)" cy="-8" rx="3" ry="7" fill="#fff"/><ellipse transform="rotate(180)" cy="-8" rx="3" ry="7" fill="#fff"/><ellipse transform="rotate(216)" cy="-8" rx="3" ry="7" fill="#fff"/><ellipse transform="rotate(252)" cy="-8" rx="3" ry="7" fill="#fff"/><ellipse transform="rotate(288)" cy="-8" rx="3" ry="7" fill="#fff"/><ellipse transform="rotate(324)" cy="-8" rx="3" ry="7" fill="#fff"/><circle r="4.5" fill="#facc15"/></g><g transform="translate(29 351) scale(1.0)"><ellipse transform="rotate(0)" cy="-8" rx="3" ry="7" fill="#fff"/><ellipse transform="rotate(36)" cy="-8" rx="3" ry="7" fill="#fff"/><ellipse transform="rotate(72)" cy="-8" rx="3" ry="7" fill="#fff"/><ellipse transform="rotate(108)" cy="-8" rx="3" ry="7" fill="#fff"/><ellipse transform="rotate(144)" cy="-8" rx="3" ry="7" fill="#fff"/><ellipse transform="rotate(180)" cy="-8" rx="3" ry="7" fill="#fff"/><ellipse transform="rotate(216)" cy="-8" rx="3" ry="7" fill="#fff"/><ellipse transform="rotate(252)" cy="-8" rx="3" ry="7" fill="#fff"/><ellipse transform="rotate(288)" cy="-8" rx="3" ry="7" fill="#fff"/><ellipse transform="rotate(324)" cy="-8" rx="3" ry="7" fill="#fff"/><circle r="4.5" fill="#facc15"/></g><g transform="translate(315 705) scale(1.26)"><ellipse transform="rotate(0)" cy="-8" rx="3" ry="7" fill="#fff"/><ellipse transform="rotate(36)" cy="-8" rx="3" ry="7" fill="#fff"/><ellipse transform="rotate(72)" cy="-8" rx="3" ry="7" fill="#fff"/><ellipse transform="rotate(108)" cy="-8" rx="3" ry="7" fill="#fff"/><ellipse transform="rotate(144)" cy="-8" rx="3" ry="7" fill="#fff"/><ellipse transform="rotate(180)" cy="-8" rx="3" ry="7" fill="#fff"/><ellipse transform="rotate(216)" cy="-8" rx="3" ry="7" fill="#fff"/><ellipse transform="rotate(252)" cy="-8" rx="3" ry="7" fill="#fff"/><ellipse transform="rotate(288)" cy="-8" rx="3" ry="7" fill="#fff"/><ellipse transform="rotate(324)" cy="-8" rx="3" ry="7" fill="#fff"/><circle r="4.5" fill="#facc15"/></g><g transform="translate(346 260) scale(1.09)"><ellipse transform="rotate(0)" cy="-8" rx="3" ry="7" fill="#fff"/><ellipse transform="rotate(36)" cy="-8" rx="3" ry="7" fill="#fff"/><ellipse transform="rotate(72)" cy="-8" rx="3" ry="7" fill="#fff"/><ellipse transform="rotate(108)" cy="-8" rx="3" ry="7" fill="#fff"/><ellipse transform="rotate(144)" cy="-8" rx="3" ry="7" fill="#fff"/><ellipse transform="rotate(180)" cy="-8" rx="3" ry="7" fill="#fff"/><ellipse transform="rotate(216)" cy="-8" rx="3" ry="7" fill="#fff"/><ellipse transform="rotate(252)" cy="-8" rx="3" ry="7" fill="#fff"/><ellipse transform="rotate(288)" cy="-8" rx="3" ry="7" fill="#fff"/><ellipse transform="rotate(324)" cy="-8" rx="3" ry="7" fill="#fff"/><circle r="4.5" fill="#facc15"/></g><g transform="translate(41 736) scale(1.17)"><ellipse transform="rotate(0)" cy="-8" rx="3" ry="7" fill="#fff"/><ellipse transform="rotate(36)" cy="-8" rx="3" ry="7" fill="#fff"/><ellipse transform="rotate(72)" cy="-8" rx="3" ry="7" fill="#fff"/><ellipse transform="rotate(108)" cy="-8" rx="3" ry="7" fill="#fff"/><ellipse transform="rotate(144)" cy="-8" rx="3" ry="7" fill="#fff"/><ellipse transform="rotate(180)" cy="-8" rx="3" ry="7" fill="#fff"/><ellipse transform="rotate(216)" cy="-8" rx="3" ry="7" fill="#fff"/><ellipse transform="rotate(252)" cy="-8" rx="3" ry="7" fill="#fff"/><ellipse transform="rotate(288)" cy="-8" rx="3" ry="7" fill="#fff"/><ellipse transform="rotate(324)" cy="-8" rx="3" ry="7" fill="#fff"/><circle r="4.5" fill="#facc15"/></g><g transform="translate(299 352) scale(0.83)"><ellipse transform="rotate(0)" cy="-8" rx="3" ry="7" fill="#fff"/><ellipse transform="rotate(36)" cy="-8" rx="3" ry="7" fill="#fff"/><ellipse transform="rotate(72)" cy="-8" rx="3" ry="7" fill="#fff"/><ellipse transform="rotate(108)" cy="-8" rx="3" ry="7" fill="#fff"/><ellipse transform="rotate(144)" cy="-8" rx="3" ry="7" fill="#fff"/><ellipse transform="rotate(180)" cy="-8" rx="3" ry="7" fill="#fff"/><ellipse transform="rotate(216)" cy="-8" rx="3" ry="7" fill="#fff"/><ellipse transform="rotate(252)" cy="-8" rx="3" ry="7" fill="#fff"/><ellipse transform="rotate(288)" cy="-8" rx="3" ry="7" fill="#fff"/><ellipse transform="rotate(324)" cy="-8" rx="3" ry="7" fill="#fff"/><circle r="4.5" fill="#facc15"/></g><g transform="translate(320 578) scale(1.11)"><ellipse transform="rotate(0)" cy="-8" rx="3" ry="7" fill="#fff"/><ellipse transform="rotate(36)" cy="-8" rx="3" ry="7" fill="#fff"/><ellipse transform="rotate(72)" cy="-8" rx="3" ry="7" fill="#fff"/><ellipse transform="rotate(108)" cy="-8" rx="3" ry="7" fill="#fff"/><ellipse transform="rotate(144)" cy="-8" rx="3" ry="7" fill="#fff"/><ellipse transform="rotate(180)" cy="-8" rx="3" ry="7" fill="#fff"/><ellipse transform="rotate(216)" cy="-8" rx="3" ry="7" fill="#fff"/><ellipse transform="rotate(252)" cy="-8" rx="3" ry="7" fill="#fff"/><ellipse transform="rotate(288)" cy="-8" rx="3" ry="7" fill="#fff"/><ellipse transform="rotate(324)" cy="-8" rx="3" ry="7" fill="#fff"/><circle r="4.5" fill="#facc15"/></g><g transform="translate(189 682) scale(0.97)"><ellipse transform="rotate(0)" cy="-8" rx="3" ry="7" fill="#fff"/><ellipse transform="rotate(36)" cy="-8" rx="3" ry="7" fill="#fff"/><ellipse transform="rotate(72)" cy="-8" rx="3" ry="7" fill="#fff"/><ellipse transform="rotate(108)" cy="-8" rx="3" ry="7" fill="#fff"/><ellipse transform="rotate(144)" cy="-8" rx="3" ry="7" fill="#fff"/><ellipse transform="rotate(180)" cy="-8" rx="3" ry="7" fill="#fff"/><ellipse transform="rotate(216)" cy="-8" rx="3" ry="7" fill="#fff"/><ellipse transform="rotate(252)" cy="-8" rx="3" ry="7" fill="#fff"/><ellipse transform="rotate(288)" cy="-8" rx="3" ry="7" fill="#fff"/><ellipse transform="rotate(324)" cy="-8" rx="3" ry="7" fill="#fff"/><circle r="4.5" fill="#facc15"/></g><g transform="translate(123 589) scale(1.25)"><ellipse transform="rotate(0)" cy="-8" rx="3" ry="7" fill="#fff"/><ellipse transform="rotate(36)" cy="-8" rx="3" ry="7" fill="#fff"/><ellipse transform="rotate(72)" cy="-8" rx="3" ry="7" fill="#fff"/><ellipse transform="rotate(108)" cy="-8" rx="3" ry="7" fill="#fff"/><ellipse transform="rotate(144)" cy="-8" rx="3" ry="7" fill="#fff"/><ellipse transform="rotate(180)" cy="-8" rx="3" ry="7" fill="#fff"/><ellipse transform="rotate(216)" cy="-8" rx="3" ry="7" fill="#fff"/><ellipse transform="rotate(252)" cy="-8" rx="3" ry="7" fill="#fff"/><ellipse transform="rotate(288)" cy="-8" rx="3" ry="7" fill="#fff"/><ellipse transform="rotate(324)" cy="-8" rx="3" ry="7" fill="#fff"/><circle r="4.5" fill="#facc15"/></g><g transform="translate(37 287) scale(1.06)"><ellipse transform="rotate(0)" cy="-8" rx="3" ry="7" fill="#fff"/><ellipse transform="rotate(36)" cy="-8" rx="3" ry="7" fill="#fff"/><ellipse transform="rotate(72)" cy="-8" rx="3" ry="7" fill="#fff"/><ellipse transform="rotate(108)" cy="-8" rx="3" ry="7" fill="#fff"/><ellipse transform="rotate(144)" cy="-8" rx="3" ry="7" fill="#fff"/><ellipse transform="rotate(180)" cy="-8" rx="3" ry="7" fill="#fff"/><ellipse transform="rotate(216)" cy="-8" rx="3" ry="7" fill="#fff"/><ellipse transform="rotate(252)" cy="-8" rx="3" ry="7" fill="#fff"/><ellipse transform="rotate(288)" cy="-8" rx="3" ry="7" fill="#fff"/><ellipse transform="rotate(324)" cy="-8" rx="3" ry="7" fill="#fff"/><circle r="4.5" fill="#facc15"/></g><g transform="translate(40 300)"><path d="M0 0V30" stroke="#15803d" stroke-width="3"/><path d="M0 20c-8-4-12-10-12-16 6 2 10 6 12 12" fill="#16a34a"/><path d="M-9 0c-2-10 2-18 9-20 7 2 11 10 9 20Z" fill="#f472b6"/><path d="M-3 -2c0-8 3-14 6-17" stroke="#fff" stroke-opacity=".35" stroke-width="2" fill="none"/></g><g transform="translate(362 330)"><path d="M0 0V30" stroke="#15803d" stroke-width="3"/><path d="M0 20c-8-4-12-10-12-16 6 2 10 6 12 12" fill="#16a34a"/><path d="M-9 0c-2-10 2-18 9-20 7 2 11 10 9 20Z" fill="#a78bfa"/><path d="M-3 -2c0-8 3-14 6-17" stroke="#fff" stroke-opacity=".35" stroke-width="2" fill="none"/></g><g transform="translate(30 590)"><path d="M0 0V30" stroke="#15803d" stroke-width="3"/><path d="M0 20c-8-4-12-10-12-16 6 2 10 6 12 12" fill="#16a34a"/><path d="M-9 0c-2-10 2-18 9-20 7 2 11 10 9 20Z" fill="#fb7185"/><path d="M-3 -2c0-8 3-14 6-17" stroke="#fff" stroke-opacity=".35" stroke-width="2" fill="none"/></g><g transform="translate(372 620)"><path d="M0 0V30" stroke="#15803d" stroke-width="3"/><path d="M0 20c-8-4-12-10-12-16 6 2 10 6 12 12" fill="#16a34a"/><path d="M-9 0c-2-10 2-18 9-20 7 2 11 10 9 20Z" fill="#facc15"/><path d="M-3 -2c0-8 3-14 6-17" stroke="#fff" stroke-opacity=".35" stroke-width="2" fill="none"/></g><g transform="translate(190 745)"><path d="M0 0V30" stroke="#15803d" stroke-width="3"/><path d="M0 20c-8-4-12-10-12-16 6 2 10 6 12 12" fill="#16a34a"/><path d="M-9 0c-2-10 2-18 9-20 7 2 11 10 9 20Z" fill="#f472b6"/><path d="M-3 -2c0-8 3-14 6-17" stroke="#fff" stroke-opacity=".35" stroke-width="2" fill="none"/></g><g transform="translate(70 430) rotate(-12)"><path d="M0-22C12-22 18-4 18 6 18 17 10 24 0 24S-18 17-18 6C-18-4-12-22 0-22Z" fill="#fbcfe8" stroke="rgba(0,0,0,.15)"/><path d="M-17 0l5-5 5 5 5-5 5 5 5-5 5 5 4-4" stroke="#a78bfa" stroke-width="3" fill="none"/><path d="M-17 11h34" stroke="#38bdf8" stroke-width="3"/><circle cx="-8" cy="-10" r="2" fill="#38bdf8"/><circle cx="0" cy="-13" r="2" fill="#a78bfa"/><circle cx="8" cy="-10" r="2" fill="#38bdf8"/><ellipse cx="-7" cy="-8" rx="3" ry="6" fill="#fff" opacity=".35"/></g><g transform="translate(338 470) rotate(14)"><path d="M0-22C12-22 18-4 18 6 18 17 10 24 0 24S-18 17-18 6C-18-4-12-22 0-22Z" fill="#fef08a" stroke="rgba(0,0,0,.15)"/><path d="M-17 0l5-5 5 5 5-5 5 5 5-5 5 5 4-4" stroke="#f472b6" stroke-width="3" fill="none"/><path d="M-17 11h34" stroke="#22c55e" stroke-width="3"/><circle cx="-8" cy="-10" r="2" fill="#22c55e"/><circle cx="0" cy="-13" r="2" fill="#f472b6"/><circle cx="8" cy="-10" r="2" fill="#22c55e"/><ellipse cx="-7" cy="-8" rx="3" ry="6" fill="#fff" opacity=".35"/></g><g transform="translate(110 720) rotate(8)"><path d="M0-22C12-22 18-4 18 6 18 17 10 24 0 24S-18 17-18 6C-18-4-12-22 0-22Z" fill="#bfdbfe" stroke="rgba(0,0,0,.15)"/><path d="M-17 0l5-5 5 5 5-5 5 5 5-5 5 5 4-4" stroke="#f59e0b" stroke-width="3" fill="none"/><path d="M-17 11h34" stroke="#ec4899" stroke-width="3"/><circle cx="-8" cy="-10" r="2" fill="#ec4899"/><circle cx="0" cy="-13" r="2" fill="#f59e0b"/><circle cx="8" cy="-10" r="2" fill="#ec4899"/><ellipse cx="-7" cy="-8" rx="3" ry="6" fill="#fff" opacity=".35"/></g><g transform="translate(300 730) rotate(-10)"><path d="M0-22C12-22 18-4 18 6 18 17 10 24 0 24S-18 17-18 6C-18-4-12-22 0-22Z" fill="#ddd6fe" stroke="rgba(0,0,0,.15)"/><path d="M-17 0l5-5 5 5 5-5 5 5 5-5 5 5 4-4" stroke="#10b981" stroke-width="3" fill="none"/><path d="M-17 11h34" stroke="#f472b6" stroke-width="3"/><circle cx="-8" cy="-10" r="2" fill="#f472b6"/><circle cx="0" cy="-13" r="2" fill="#10b981"/><circle cx="8" cy="-10" r="2" fill="#f472b6"/><ellipse cx="-7" cy="-8" rx="3" ry="6" fill="#fff" opacity=".35"/></g><g transform="translate(330 250) rotate(6)"><path d="M0-22C12-22 18-4 18 6 18 17 10 24 0 24S-18 17-18 6C-18-4-12-22 0-22Z" fill="#bbf7d0" stroke="rgba(0,0,0,.15)"/><path d="M-17 0l5-5 5 5 5-5 5 5 5-5 5 5 4-4" stroke="#8b5cf6" stroke-width="3" fill="none"/><path d="M-17 11h34" stroke="#f59e0b" stroke-width="3"/><circle cx="-8" cy="-10" r="2" fill="#f59e0b"/><circle cx="0" cy="-13" r="2" fill="#8b5cf6"/><circle cx="8" cy="-10" r="2" fill="#f59e0b"/><ellipse cx="-7" cy="-8" rx="3" ry="6" fill="#fff" opacity=".35"/></g><rect width="400" height="800" fill="url(#vig)"/></svg>