<svg xmlns="http://www.w3.org/2000/svg" viewBox="0 0 400 800" preserveAspectRatio="xMidYMid slice"><defs><linearGradient id="bg" x1="0" y1="0" x2="0" y2="1"><stop offset="0" stop-color="#020617"/><stop offset=".6" stop-color="#1e1b4b"/><stop offset="1" stop-color="#312e81"/></linearGradient><radialGradient id="fw" cx=".5" cy=".5" r=".5"><stop offset="0" stop-color="#fff" stop-opacity=".6"/><stop offset="1" stop-color="#fff" stop-opacity="0"/></radialGradient><radialGradient id="vig" cx=".5" cy=".5" r=".75"><stop offset=".55" stop-color="#000" stop-opacity="0"/><stop offset="1" stop-color="#000" stop-opacity=".6"/></radialGradient></defs><rect width="400" height="800" fill="url(#bg)"/><circle cx="351" cy="47" r="0.7" fill="#fff" opacity="0.84"/><circle cx="73" cy="423" r="1.2" fill="#fff" opacity="0.81"/><circle cx="270" cy="530" r="0.8" fill="#fff" opacity="0.62"/><circle cx="206" cy="277" r="0.8" fill="#fff" opacity="0.47"/><circle cx="320" cy="103" r="1.2" fill="#fff" opacity="0.46"/><circle cx="7" cy="50" r="0.7" fill="#fff" opacity="0.66"/><circle cx="89" cy="148" r="0.6" fill="#fff" opacity="0.31"/><circle cx="398" cy="234" r="1.2" fill="#fff" opacity="0.67"/><circle cx="17" cy="397" r="1.3" fill="#fff" opacity="0.88"/><circle cx="105" cy="101" r="1.2" fill="#fff" opacity="0.68"/><circle cx="212" cy="115" r="0.9" fill="#fff" opacity="0.70"/><circle cx="108" cy="450" r="1.3" fill="#fff" opacity="0.32"/><circle cx="7" cy="283" r="1.3" fill="#fff" opacity="0.61"/><circle cx="98" cy="250" r="1.0" fill="#fff" opacity="0.69"/><circle cx="263" cy="306" r="1.2" fill="#fff" opacity="0.88"/><circle cx="123" cy="121" r="0.7" fill="#fff" opacity="0.42"/><circle cx="353" cy="408" r="0.6" fill="#fff" opacity="0.89"/><circle cx="393" cy="469" r="0.5" fill="#fff" opacity="0.68"/><circle cx="352" cy="241" r="0.5" fill="#fff" opacity="0.70"/><circle cx="152" cy="283" r="1.3" fill="#fff" opacity="0.66"/><circle cx="277" cy="25" r="0.6" fill="#fff" opacity="0.46"/><circle cx="1" cy="204" r="0.8" fill="#fff" opacity="0.89"/><circle cx="129" cy="19" r="1.2" fill="#fff" opacity="0.43"/><circle cx="73" cy="188" r="0.6" fill="#fff" opacity="0.47"/><circle cx="262" cy="139" r="1.1" fill="#fff" opacity="0.35"/><circle cx="327" cy="81" r="1.0" fill="#fff" opacity="0.54"/><circle cx="120" cy="353" r="0.6" fill="#fff" opacity="0.87"/><circle cx="341" cy="87" r="1.2" fill="#fff" opacity="0.77"/><circle cx="239" cy="428" r="1.1" fill="#fff" opacity="0.60"/><circle cx="114" cy="346" r="0.6" fill="#fff" opacity="0.79"/><circle cx="286" cy="287" r="0.8" fill="#fff" opacity="0.72"/><circle cx="202" cy="510" r="1.1" fill="#fff" opacity="0.64"/><circle cx="325" cy="9" r="1.0" fill="#fff" opacity="0.78"/><circle cx="284" cy="535" r="1.0" fill="#fff" opacity="0.35"/><circle cx="17" cy="357" r="1.3" fill="#fff" opacity="0.53"/><circle cx="181" cy="28" r="0.5" fill="#fff" opacity="0.62"/><circle cx="98" cy="148" r="0.9" fill="#fff" opacity="0.34"/><circle cx="373" cy="503" r="0.6" fill="#fff" opacity="0.62"/><circle cx="298" cy="265" r="1.1" fill="#fff" opacity="0.81"/><circle cx="94" cy="424" r="0.7" fill="#fff" opacity="0.69"/><g transform="translate(90 120)"><circle r="72.0" fill="#f472b6" opacity=".1"/><path d="M15.0 0.0L60.0 0.0" stroke="#fde68a" stroke-width="2.2" stroke-linecap="round"/><circle cx="64.8" cy="0.0" r="2" fill="#fde68a"/><path d="M14.1 5.1L56.4 20.5" stroke="#f472b6" stroke-width="2.2" stroke-linecap="round"/><circle cx="60.9" cy="22.2" r="2" fill="#fde68a"/><path d="M11.5 9.6L46.0 38.6" stroke="#fde68a" stroke-width="2.2" stroke-linecap="round"/><circle cx="49.6" cy="41.7" r="2" fill="#fde68a"/><path d="M7.5 13.0L30.0 52.0" stroke="#f472b6" stroke-width="2.2" stroke-linecap="round"/><circle cx="32.4" cy="56.1" r="2" fill="#fde68a"/><path d="M2.6 14.8L10.4 59.1" stroke="#fde68a" stroke-width="2.2" stroke-linecap="round"/><circle cx="11.3" cy="63.8" r="2" fill="#fde68a"/><path d="M-2.6 14.8L-10.4 59.1" stroke="#f472b6" stroke-width="2.2" stroke-linecap="round"/><circle cx="-11.3" cy="63.8" r="2" fill="#fde68a"/><path d="M-7.5 13.0L-30.0 52.0" stroke="#fde68a" stroke-width="2.2" stroke-linecap="round"/><circle cx="-32.4" cy="56.1" r="2" fill="#fde68a"/><path d="M-11.5 9.6L-46.0 38.6" stroke="#f472b6" stroke-width="2.2" stroke-linecap="round"/><circle cx="-49.6" cy="41.7" r="2" fill="#fde68a"/><path d="M-14.1 5.1L-56.4 20.5" stroke="#fde68a" stroke-width="2.2" stroke-linecap="round"/><circle cx="-60.9" cy="22.2" r="2" fill="#fde68a"/><path d="M-15.0 0.0L-60.0 0.0" stroke="#f472b6" stroke-width="2.2" stroke-linecap="round"/><circle cx="-64.8" cy="0.0" r="2" fill="#fde68a"/><path d="M-14.1 -5.1L-56.4 -20.5" stroke="#fde68a" stroke-width="2.2" stroke-linecap="round"/><circle cx="-60.9" cy="-22.2" r="2" fill="#fde68a"/><path d="M-11.5 -9.6L-46.0 -38.6" stroke="#f472b6" stroke-width="2.2" stroke-linecap="round"/><circle cx="-49.6" cy="-41.7" r="2" fill="#fde68a"/><path d="M-7.5 -13.0L-30.0 -52.0" stroke="#fde68a" stroke-width="2.2" stroke-linecap="round"/><circle cx="-32.4" cy="-56.1" r="2" fill="#fde68a"/><path d="M-2.6 -14.8L-10.4 -59.1" stroke="#f472b6" stroke-width="2.2" stroke-linecap="round"/><circle cx="-11.3" cy="-63.8" r="2" fill="#fde68a"/><path d="M2.6 -14.8L10.4 -59.1" stroke="#fde68a" stroke-width="2.2" stroke-linecap="round"/><circle cx="11.3" cy="-63.8" r="2" fill="#fde68a"/><path d="M7.5 -13.0L30.0 -52.0" stroke="#f472b6" stroke-width="2.2" stroke-linecap="round"/><circle cx="32.4" cy="-56.1" r="2" fill="#fde68a"/><path d="M11.5 -9.6L46.0 -38.6" stroke="#fde68a" stroke-width="2.2" stroke-linecap="round"/><circle cx="49.6" cy="-41.7" r="2" fill="#fde68a"/><path d="M14.1 -5.1L56.4 -20.5" stroke="#f472b6" stroke-width="2.2" stroke-linecap="round"/><circle cx="60.9" cy="-22.2" r="2" fill="#fde68a"/><circle r="4" fill="#fff"/></g><g transform="translate(300 90)"><circle r="84.0" fill="#fbbf24" opacity=".1"/><path d="M17.5 0.0L70.0 0.0" stroke="#fff7d6" stroke-width="2.2" stroke-linecap="round"/><circle cx="75.6" cy="0.0" r="2" fill="#fff7d6"/><path d="M16.8 4.9L67.2 19.7" stroke="#fbbf24" stroke-width="2.2" stroke-linecap="round"/><circle cx="72.5" cy="21.3" r="2" fill="#fff7d6"/><path d="M14.7 9.5L58.9 37.8" stroke="#fff7d6" stroke-width="2.2" stroke-linecap="round"/><circle cx="63.6" cy="40.9" r="2" fill="#fff7d6"/><path d="M11.5 13.2L45.8 52.9" stroke="#fbbf24" stroke-width="2.2" stroke-linecap="round"/><circle cx="49.5" cy="57.1" r="2" fill="#fff7d6"/><path d="M7.3 15.9L29.1 63.7" stroke="#fff7d6" stroke-width="2.2" stroke-linecap="round"/><circle cx="31.4" cy="68.8" r="2" fill="#fff7d6"/><path d="M2.5 17.3L10.0 69.3" stroke="#fbbf24" stroke-width="2.2" stroke-linecap="round"/><circle cx="10.8" cy="74.8" r="2" fill="#fff7d6"/><path d="M-2.5 17.3L-10.0 69.3" stroke="#fff7d6" stroke-width="2.2" stroke-linecap="round"/><circle cx="-10.8" cy="74.8" r="2" fill="#fff7d6"/><path d="M-7.3 15.9L-29.1 63.7" stroke="#fbbf24" stroke-width="2.2" stroke-linecap="round"/><circle cx="-31.4" cy="68.8" r="2" fill="#fff7d6"/><path d="M-11.5 13.2L-45.8 52.9" stroke="#fff7d6" stroke-width="2.2" stroke-linecap="round"/><circle cx="-49.5" cy="57.1" r="2" fill="#fff7d6"/><path d="M-14.7 9.5L-58.9 37.8" stroke="#fbbf24" stroke-width="2.2" stroke-linecap="round"/><circle cx="-63.6" cy="40.9" r="2" fill="#fff7d6"/><path d="M-16.8 4.9L-67.2 19.7" stroke="#fff7d6" stroke-width="2.2" stroke-linecap="round"/><circle cx="-72.5" cy="21.3" r="2" fill="#fff7d6"/><path d="M-17.5 0.0L-70.0 0.0" stroke="#fbbf24" stroke-width="2.2" stroke-linecap="round"/><circle cx="-75.6" cy="0.0" r="2" fill="#fff7d6"/><path d="M-16.8 -4.9L-67.2 -19.7" stroke="#fff7d6" stroke-width="2.2" stroke-linecap="round"/><circle cx="-72.5" cy="-21.3" r="2" fill="#fff7d6"/><path d="M-14.7 -9.5L-58.9 -37.8" stroke="#fbbf24" stroke-width="2.2" stroke-linecap="round"/><circle cx="-63.6" cy="-40.9" r="2" fill="#fff7d6"/><path d="M-11.5 -13.2L-45.8 -52.9" stroke="#fff7d6" stroke-width="2.2" stroke-linecap="round"/><circle cx="-49.5" cy="-57.1" r="2" fill="#fff7d6"/><path d="M-7.3 -15.9L-29.1 -63.7" stroke="#fbbf24" stroke-width="2.2" stroke-linecap="round"/><circle cx="-31.4" cy="-68.8" r="2" fill="#fff7d6"/><path d="M-2.5 -17.3L-10.0 -69.3" stroke="#fff7d6" stroke-width="2.2" stroke-linecap="round"/><circle cx="-10.8" cy="-74.8" r="2" fill="#fff7d6"/><path d="M2.5 -17.3L10.0 -69.3" stroke="#fbbf24" stroke-width="2.2" stroke-linecap="round"/><circle cx="10.8" cy="-74.8" r="2" fill="#fff7d6"/><path d="M7.3 -15.9L29.1 -63.7" stroke="#fff7d6" stroke-width="2.2" stroke-linecap="round"/><circle cx="31.4" cy="-68.8" r="2" fill="#fff7d6"/><path d="M11.5 -13.2L45.8 -52.9" stroke="#fbbf24" stroke-width="2.2" stroke-linecap="round"/><circle cx="49.5" cy="-57.1" r="2" fill="#fff7d6"/><path d="M14.7 -9.5L58.9 -37.8" stroke="#fff7d6" stroke-width="2.2" stroke-linecap="round"/><circle cx="63.6" cy="-40.9" r="2" fill="#fff7d6"/><path d="M16.8 -4.9L67.2 -19.7" stroke="#fbbf24" stroke-width="2.2" stroke-linecap="round"/><circle cx="72.5" cy="-21.3" r="2" fill="#fff7d6"/><circle r="4" fill="#fff"/></g><g transform="translate(330 300)"><circle r="55.199999999999996" fill="#22d3ee" opacity=".1"/><path d="M11.5 0.0L46.0 0.0" stroke="#e0f2fe" stroke-width="2.2" stroke-linecap="round"/><circle cx="49.7" cy="0.0" r="2" fill="#e0f2fe"/><path d="M10.8 3.9L43.2 15.7" stroke="#22d3ee" stroke-width="2.2" stroke-linecap="round"/><circle cx="46.7" cy="17.0" r="2" fill="#e0f2fe"/><path d="M8.8 7.4L35.2 29.6" stroke="#e0f2fe" stroke-width="2.2" stroke-linecap="round"/><circle cx="38.1" cy="31.9" r="2" fill="#e0f2fe"/><path d="M5.8 10.0L23.0 39.8" stroke="#22d3ee" stroke-width="2.2" stroke-linecap="round"/><circle cx="24.8" cy="43.0" r="2" fill="#e0f2fe"/><path d="M2.0 11.3L8.0 45.3" stroke="#e0f2fe" stroke-width="2.2" stroke-linecap="round"/><circle cx="8.6" cy="48.9" r="2" fill="#e0f2fe"/><path d="M-2.0 11.3L-8.0 45.3" stroke="#22d3ee" stroke-width="2.2" stroke-linecap="round"/><circle cx="-8.6" cy="48.9" r="2" fill="#e0f2fe"/><path d="M-5.7 10.0L-23.0 39.8" stroke="#e0f2fe" stroke-width="2.2" stroke-linecap="round"/><circle cx="-24.8" cy="43.0" r="2" fill="#e0f2fe"/><path d="M-8.8 7.4L-35.2 29.6" stroke="#22d3ee" stroke-width="2.2" stroke-linecap="round"/><circle cx="-38.1" cy="31.9" r="2" fill="#e0f2fe"/><path d="M-10.8 3.9L-43.2 15.7" stroke="#e0f2fe" stroke-width="2.2" stroke-linecap="round"/><circle cx="-46.7" cy="17.0" r="2" fill="#e0f2fe"/><path d="M-11.5 0.0L-46.0 0.0" stroke="#22d3ee" stroke-width="2.2" stroke-linecap="round"/><circle cx="-49.7" cy="0.0" r="2" fill="#e0f2fe"/><path d="M-10.8 -3.9L-43.2 -15.7" stroke="#e0f2fe" stroke-width="2.2" stroke-linecap="round"/><circle cx="-46.7" cy="-17.0" r="2" fill="#e0f2fe"/><path d="M-8.8 -7.4L-35.2 -29.6" stroke="#22d3ee" stroke-width="2.2" stroke-linecap="round"/><circle cx="-38.1" cy="-31.9" r="2" fill="#e0f2fe"/><path d="M-5.8 -10.0L-23.0 -39.8" stroke="#e0f2fe" stroke-width="2.2" stroke-linecap="round"/><circle cx="-24.8" cy="-43.0" r="2" fill="#e0f2fe"/><path d="M-2.0 -11.3L-8.0 -45.3" stroke="#22d3ee" stroke-width="2.2" stroke-linecap="round"/><circle cx="-8.6" cy="-48.9" r="2" fill="#e0f2fe"/><path d="M2.0 -11.3L8.0 -45.3" stroke="#e0f2fe" stroke-width="2.2" stroke-linecap="round"/><circle cx="8.6" cy="-48.9" r="2" fill="#e0f2fe"/><path d="M5.7 -10.0L23.0 -39.8" stroke="#22d3ee" stroke-width="2.2" stroke-linecap="round"/><circle cx="24.8" cy="-43.0" r="2" fill="#e0f2fe"/><path d="M8.8 -7.4L35.2 -29.6" stroke="#e0f2fe" stroke-width="2.2" stroke-linecap="round"/><circle cx="38.1" cy="-31.9" r="2" fill="#e0f2fe"/><path d="M10.8 -3.9L43.2 -15.7" stroke="#22d3ee" stroke-width="2.2" stroke-linecap="round"/><circle cx="46.7" cy="-17.0" r="2" fill="#e0f2fe"/><circle r="4" fill="#fff"/></g><g transform="translate(70 320)"><circle r="48.0" fill="#a78bfa" opacity=".1"/><path d="M10.0 0.0L40.0 0.0" stroke="#f5d0fe" stroke-width="2.2" stroke-linecap="round"/><circle cx="43.2" cy="0.0" r="2" fill="#f5d0fe"/><path d="M9.0 4.3L36.0 17.4" stroke="#a78bfa" stroke-width="2.2" stroke-linecap="round"/><circle cx="38.9" cy="18.7" r="2" fill="#f5d0fe"/><path d="M6.2 7.8L24.9 31.3" stroke="#f5d0fe" stroke-width="2.2" stroke-linecap="round"/><circle cx="26.9" cy="33.8" r="2" fill="#f5d0fe"/><path d="M2.2 9.7L8.9 39.0" stroke="#a78bfa" stroke-width="2.2" stroke-linecap="round"/><circle cx="9.6" cy="42.1" r="2" fill="#f5d0fe"/><path d="M-2.2 9.7L-8.9 39.0" stroke="#f5d0fe" stroke-width="2.2" stroke-linecap="round"/><circle cx="-9.6" cy="42.1" r="2" fill="#f5d0fe"/><path d="M-6.2 7.8L-24.9 31.3" stroke="#a78bfa" stroke-width="2.2" stroke-linecap="round"/><circle cx="-26.9" cy="33.8" r="2" fill="#f5d0fe"/><path d="M-9.0 4.3L-36.0 17.4" stroke="#f5d0fe" stroke-width="2.2" stroke-linecap="round"/><circle cx="-38.9" cy="18.7" r="2" fill="#f5d0fe"/><path d="M-10.0 0.0L-40.0 0.0" stroke="#a78bfa" stroke-width="2.2" stroke-linecap="round"/><circle cx="-43.2" cy="0.0" r="2" fill="#f5d0fe"/><path d="M-9.0 -4.3L-36.0 -17.4" stroke="#f5d0fe" stroke-width="2.2" stroke-linecap="round"/><circle cx="-38.9" cy="-18.7" r="2" fill="#f5d0fe"/><path d="M-6.2 -7.8L-24.9 -31.3" stroke="#a78bfa" stroke-width="2.2" stroke-linecap="round"/><circle cx="-26.9" cy="-33.8" r="2" fill="#f5d0fe"/><path d="M-2.2 -9.7L-8.9 -39.0" stroke="#f5d0fe" stroke-width="2.2" stroke-linecap="round"/><circle cx="-9.6" cy="-42.1" r="2" fill="#f5d0fe"/><path d="M2.2 -9.7L8.9 -39.0" stroke="#a78bfa" stroke-width="2.2" stroke-linecap="round"/><circle cx="9.6" cy="-42.1" r="2" fill="#f5d0fe"/><path d="M6.2 -7.8L24.9 -31.3" stroke="#f5d0fe" stroke-width="2.2" stroke-linecap="round"/><circle cx="26.9" cy="-33.8" r="2" fill="#f5d0fe"/><path d="M9.0 -4.3L36.0 -17.4" stroke="#a78bfa" stroke-width="2.2" stroke-linecap="round"/><circle cx="38.9" cy="-18.7" r="2" fill="#f5d0fe"/><circle r="4" fill="#fff"/></g><rect x="0" y="567" width="42" height="233" fill="#0b1026"/><rect x="45" y="708" width="36" height="92" fill="#0b1026"/><rect x="84" y="684" width="29" height="116" fill="#0b1026"/><path d="M98.5 654V684" stroke="#0b1026" stroke-width="3"/><circle cx="98.5" cy="654" r="2.5" fill="#ef4444"/><rect x="113" y="642" width="30" height="158" fill="#0b1026"/><rect x="145" y="689" width="39" height="111" fill="#0b1026"/><rect x="187" y="652" width="28" height="148" fill="#0b1026"/><rect x="216" y="595" width="31" height="205" fill="#0b1026"/><rect x="247" y="653" width="33" height="147" fill="#0b1026"/><path d="M263.5 623V653" stroke="#0b1026" stroke-width="3"/><circle cx="263.5" cy="623" r="2.5" fill="#ef4444"/><rect x="283" y="570" width="38" height="230" fill="#0b1026"/><rect x="325" y="683" width="38" height="117" fill="#0b1026"/><path d="M344.0 653V683" stroke="#0b1026" stroke-width="3"/><circle cx="344.0" cy="653" r="2.5" fill="#ef4444"/><rect x="364" y="550" width="57" height="250" fill="#0b1026"/><rect x="35" y="577" width="4" height="6" fill="#fde68a" opacity="0.86"/><rect x="25" y="591" width="4" height="6" fill="#fde68a" opacity="0.70"/><rect x="35" y="591" width="4" height="6" fill="#fde68a" opacity="0.74"/><rect x="15" y="633" width="4" height="6" fill="#fde68a" opacity="0.52"/><rect x="15" y="647" width="4" height="6" fill="#fde68a" opacity="0.77"/><rect x="25" y="647" width="4" height="6" fill="#fde68a" opacity="0.61"/><rect x="35" y="647" width="4" height="6" fill="#fde68a" opacity="0.50"/><rect x="5" y="661" width="4" height="6" fill="#fde68a" opacity="0.79"/><rect x="5" y="675" width="4" height="6" fill="#fde68a" opacity="0.61"/><rect x="35" y="675" width="4" height="6" fill="#fde68a" opacity="0.75"/><rect x="5" y="689" width="4" height="6" fill="#fde68a" opacity="0.55"/><rect x="15" y="689" width="4" height="6" fill="#fde68a" opacity="0.53"/><rect x="25" y="689" width="4" height="6" fill="#fde68a" opacity="0.81"/><rect x="35" y="689" width="4" height="6" fill="#fde68a" opacity="0.92"/><rect x="5" y="703" width="4" height="6" fill="#fde68a" opacity="0.67"/><rect x="5" y="717" width="4" height="6" fill="#fde68a" opacity="0.80"/><rect x="15" y="717" width="4" height="6" fill="#fde68a" opacity="0.64"/><rect x="25" y="717" width="4" height="6" fill="#fde68a" opacity="0.68"/><rect x="5" y="731" width="4" height="6" fill="#fde68a" opacity="0.82"/><rect x="15" y="731" width="4" height="6" fill="#fde68a" opacity="0.71"/><rect x="5" y="745" width="4" height="6" fill="#fde68a" opacity="0.73"/><rect x="35" y="759" width="4" height="6" fill="#fde68a" opacity="0.89"/><rect x="35" y="773" width="4" height="6" fill="#fde68a" opacity="0.58"/><rect x="35" y="787" width="4" height="6" fill="#fde68a" opacity="0.57"/><rect x="50" y="718" width="4" height="6" fill="#fde68a" opacity="0.63"/><rect x="60" y="718" width="4" height="6" fill="#fde68a" opacity="0.54"/><rect x="50" y="732" width="4" height="6" fill="#fde68a" opacity="0.77"/><rect x="60" y="732" width="4" height="6" fill="#fde68a" opacity="0.70"/><rect x="50" y="760" width="4" height="6" fill="#fde68a" opacity="0.57"/><rect x="50" y="774" width="4" height="6" fill="#fde68a" opacity="0.59"/><rect x="50" y="788" width="4" height="6" fill="#fde68a" opacity="0.93"/><rect x="99" y="694" width="4" height="6" fill="#fde68a" opacity="0.83"/><rect x="99" y="750" width="4" height="6" fill="#fde68a" opacity="0.72"/><rect x="89" y="778" width="4" height="6" fill="#fde68a" opacity="0.60"/><rect x="118" y="652" width="4" height="6" fill="#fde68a" opacity="0.52"/><rect x="128" y="652" width="4" height="6" fill="#fde68a" opacity="0.74"/><rect x="128" y="666" width="4" height="6" fill="#fde68a" opacity="0.56"/><rect x="128" y="680" width="4" height="6" fill="#fde68a" opacity="0.83"/><rect x="128" y="722" width="4" height="6" fill="#fde68a" opacity="0.64"/><rect x="118" y="736" width="4" height="6" fill="#fde68a" opacity="0.77"/><rect x="128" y="736" width="4" height="6" fill="#fde68a" opacity="0.53"/><rect x="118" y="750" width="4" height="6" fill="#fde68a" opacity="0.56"/><rect x="128" y="750" width="4" height="6" fill="#fde68a" opacity="0.70"/><rect x="118" y="764" width="4" height="6" fill="#fde68a" opacity="0.52"/><rect x="128" y="778" width="4" height="6" fill="#fde68a" opacity="0.93"/><rect x="160" y="741" width="4" height="6" fill="#fde68a" opacity="0.79"/><rect x="160" y="783" width="4" height="6" fill="#fde68a" opacity="0.84"/><rect x="170" y="783" width="4" height="6" fill="#fde68a" opacity="0.77"/><rect x="192" y="662" width="4" height="6" fill="#fde68a" opacity="0.85"/><rect x="192" y="690" width="4" height="6" fill="#fde68a" opacity="0.56"/><rect x="192" y="718" width="4" height="6" fill="#fde68a" opacity="0.92"/><rect x="192" y="732" width="4" height="6" fill="#fde68a" opacity="0.68"/><rect x="202" y="732" width="4" height="6" fill="#fde68a" opacity="0.79"/><rect x="192" y="760" width="4" height="6" fill="#fde68a" opacity="0.60"/><rect x="202" y="760" width="4" height="6" fill="#fde68a" opacity="0.91"/><rect x="192" y="774" width="4" height="6" fill="#fde68a" opacity="0.56"/><rect x="202" y="774" width="4" height="6" fill="#fde68a" opacity="0.90"/><rect x="192" y="788" width="4" height="6" fill="#fde68a" opacity="0.53"/><rect x="221" y="661" width="4" height="6" fill="#fde68a" opacity="0.87"/><rect x="231" y="661" width="4" height="6" fill="#fde68a" opacity="0.77"/><rect x="231" y="675" width="4" height="6" fill="#fde68a" opacity="0.66"/><rect x="221" y="717" width="4" height="6" fill="#fde68a" opacity="0.85"/><rect x="231" y="717" width="4" height="6" fill="#fde68a" opacity="0.85"/><rect x="221" y="745" width="4" height="6" fill="#fde68a" opacity="0.55"/><rect x="231" y="759" width="4" height="6" fill="#fde68a" opacity="0.54"/><rect x="221" y="773" width="4" height="6" fill="#fde68a" opacity="0.87"/><rect x="231" y="773" width="4" height="6" fill="#fde68a" opacity="0.82"/><rect x="252" y="663" width="4" height="6" fill="#fde68a" opacity="0.81"/><rect x="262" y="691" width="4" height="6" fill="#fde68a" opacity="0.92"/><rect x="252" y="705" width="4" height="6" fill="#fde68a" opacity="0.70"/><rect x="252" y="719" width="4" height="6" fill="#fde68a" opacity="0.76"/><rect x="252" y="747" width="4" height="6" fill="#fde68a" opacity="0.82"/><rect x="262" y="761" width="4" height="6" fill="#fde68a" opacity="0.90"/><rect x="252" y="789" width="4" height="6" fill="#fde68a" opacity="0.91"/><rect x="272" y="789" width="4" height="6" fill="#fde68a" opacity="0.54"/><rect x="288" y="580" width="4" height="6" fill="#fde68a" opacity="0.91"/><rect x="298" y="580" width="4" height="6" fill="#fde68a" opacity="0.89"/><rect x="288" y="594" width="4" height="6" fill="#fde68a" opacity="0.74"/><rect x="308" y="664" width="4" height="6" fill="#fde68a" opacity="0.73"/><rect x="298" y="678" width="4" height="6" fill="#fde68a" opacity="0.80"/><rect x="308" y="692" width="4" height="6" fill="#fde68a" opacity="0.56"/><rect x="298" y="706" width="4" height="6" fill="#fde68a" opacity="0.72"/><rect x="288" y="720" width="4" height="6" fill="#fde68a" opacity="0.50"/><rect x="298" y="720" width="4" height="6" fill="#fde68a" opacity="0.74"/><rect x="308" y="720" width="4" height="6" fill="#fde68a" opacity="0.91"/><rect x="308" y="734" width="4" height="6" fill="#fde68a" opacity="0.54"/><rect x="288" y="748" width="4" height="6" fill="#fde68a" opacity="0.92"/><rect x="308" y="762" width="4" height="6" fill="#fde68a" opacity="0.72"/><rect x="288" y="776" width="4" height="6" fill="#fde68a" opacity="0.91"/><rect x="350" y="693" width="4" height="6" fill="#fde68a" opacity="0.85"/><rect x="330" y="707" width="4" height="6" fill="#fde68a" opacity="0.59"/><rect x="340" y="707" width="4" height="6" fill="#fde68a" opacity="0.81"/><rect x="350" y="707" width="4" height="6" fill="#fde68a" opacity="0.66"/><rect x="340" y="721" width="4" height="6" fill="#fde68a" opacity="0.83"/><rect x="350" y="721" width="4" height="6" fill="#fde68a" opacity="0.73"/><rect x="330" y="735" width="4" height="6" fill="#fde68a" opacity="0.59"/><rect x="330" y="749" width="4" height="6" fill="#fde68a" opacity="0.69"/><rect x="350" y="749" width="4" height="6" fill="#fde68a" opacity="0.59"/><rect x="379" y="560" width="4" height="6" fill="#fde68a" opacity="0.64"/><rect x="399" y="560" width="4" height="6" fill="#fde68a" opacity="0.95"/><rect x="369" y="574" width="4" height="6" fill="#fde68a" opacity="0.61"/><rect x="389" y="574" width="4" height="6" fill="#fde68a" opacity="0.54"/><rect x="379" y="588" width="4" height="6" fill="#fde68a" opacity="0.68"/><rect x="399" y="588" width="4" height="6" fill="#fde68a" opacity="0.59"/><rect x="389" y="602" width="4" height="6" fill="#fde68a" opacity="0.73"/><rect x="379" y="616" width="4" height="6" fill="#fde68a" opacity="0.53"/><rect x="389" y="616" width="4" height="6" fill="#fde68a" opacity="0.52"/><rect x="379" y="630" width="4" height="6" fill="#fde68a" opacity="0.58"/><rect x="389" y="630" width="4" height="6" fill="#fde68a" opacity="0.88"/><rect x="369" y="644" width="4" height="6" fill="#fde68a" opacity="0.53"/><rect x="409" y="644" width="4" height="6" fill="#fde68a" opacity="0.71"/><rect x="399" y="658" width="4" height="6" fill="#fde68a" opacity="0.82"/><rect x="369" y="672" width="4" height="6" fill="#fde68a" opacity="0.70"/><rect x="399" y="672" width="4" height="6" fill="#fde68a" opacity="0.57"/><rect x="369" y="686" width="4" height="6" fill="#fde68a" opacity="0.90"/><rect x="369" y="714" width="4" height="6" fill="#fde68a" opacity="0.91"/><rect x="389" y="742" width="4" height="6" fill="#fde68a" opacity="0.65"/><rect x="409" y="742" width="4" height="6" fill="#fde68a" opacity="0.66"/><rect x="389" y="756" width="4" height="6" fill="#fde68a" opacity="0.93"/><rect x="409" y="756" width="4" height="6" fill="#fde68a" opacity="0.80"/><rect x="399" y="784" width="4" height="6" fill="#fde68a" opacity="0.78"/><path d="M0 560H400" stroke="#fbbf24" stroke-width="0" /><rect width="400" height="800" fill="url(#vig)"/></svg>