<svg xmlns="http://www.w3.org/2000/svg" viewBox="0 0 100 140" preserveAspectRatio="xMidYMid slice"><rect width="100" height="140" fill="#0b0713"/><rect width="100" height="140" fill="#3b0764" opacity=".35"/><g stroke="#cbd5e1" stroke-width="1" fill="none" opacity=".75"><path d="M50 62L160.0 62.0"/><path d="M50 62L145.3 117.0"/><path d="M50 62L105.0 157.3"/><path d="M50 62L50.0 172.0"/><path d="M50 62L-5.0 157.3"/><path d="M50 62L-45.3 117.0"/><path d="M50 62L-60.0 62.0"/><path d="M50 62L-45.3 7.0"/><path d="M50 62L-5.0 -33.3"/><path d="M50 62L50.0 -48.0"/><path d="M50 62L105.0 -33.3"/><path d="M50 62L145.3 7.0"/><path d="M60.0 62.0Q57.4 66.3 58.7 67.0Q54.3 69.4 55.0 70.7Q50.0 70.6 50.0 72.0Q45.7 69.4 45.0 70.7Q42.6 66.3 41.3 67.0Q41.4 62.0 40.0 62.0Q42.6 57.7 41.3 57.0Q45.7 54.6 45.0 53.3Q50.0 53.4 50.0 52.0Q54.3 54.6 55.0 53.3Q57.4 57.7 58.7 57.0Q58.6 62.0 60.0 62.0"/><path d="M70.0 62.0Q64.9 70.6 67.3 72.0Q58.6 76.9 60.0 79.3Q50.0 79.2 50.0 82.0Q41.4 76.9 40.0 79.3Q35.1 70.6 32.7 72.0Q32.8 62.0 30.0 62.0Q35.1 53.4 32.7 52.0Q41.4 47.1 40.0 44.7Q50.0 44.8 50.0 42.0Q58.6 47.1 60.0 44.7Q64.9 53.4 67.3 52.0Q67.2 62.0 70.0 62.0"/><path d="M82.0 62.0Q73.8 75.8 77.7 78.0Q63.8 85.8 66.0 89.7Q50.0 89.5 50.0 94.0Q36.2 85.8 34.0 89.7Q26.2 75.8 22.3 78.0Q22.5 62.0 18.0 62.0Q26.2 48.2 22.3 46.0Q36.2 38.2 34.0 34.3Q50.0 34.5 50.0 30.0Q63.8 38.2 66.0 34.3Q73.8 48.2 77.7 46.0Q77.5 62.0 82.0 62.0"/><path d="M96.0 62.0Q84.3 81.8 89.8 85.0Q69.8 96.3 73.0 101.8Q50.0 101.6 50.0 108.0Q30.2 96.3 27.0 101.8Q15.7 81.8 10.2 85.0Q10.4 62.0 4.0 62.0Q15.7 42.2 10.2 39.0Q30.2 27.7 27.0 22.2Q50.0 22.4 50.0 16.0Q69.8 27.7 73.0 22.2Q84.3 42.2 89.8 39.0Q89.6 62.0 96.0 62.0"/><path d="M112.0 62.0Q96.2 88.7 103.7 93.0Q76.7 108.2 81.0 115.7Q50.0 115.3 50.0 124.0Q23.3 108.2 19.0 115.7Q3.8 88.7 -3.7 93.0Q-3.3 62.0 -12.0 62.0Q3.8 35.3 -3.7 31.0Q23.3 15.8 19.0 8.3Q50.0 8.7 50.0 0.0Q76.7 15.8 81.0 8.3Q96.2 35.3 103.7 31.0Q103.3 62.0 112.0 62.0"/><path d="M130.0 62.0Q109.6 96.4 119.3 102.0Q84.4 121.6 90.0 131.3Q50.0 130.8 50.0 142.0Q15.6 121.6 10.0 131.3Q-9.6 96.4 -19.3 102.0Q-18.8 62.0 -30.0 62.0Q-9.6 27.6 -19.3 22.0Q15.6 2.4 10.0 -7.3Q50.0 -6.8 50.0 -18.0Q84.4 2.4 90.0 -7.3Q109.6 27.6 119.3 22.0Q118.8 62.0 130.0 62.0"/></g><path d="M50 62V100" stroke="#cbd5e1" stroke-width=".8"/><g transform="translate(50 106)"><ellipse rx="6" ry="7" fill="#111"/><circle cy="-8" r="4" fill="#111"/><path d="M-5-2-12-8M-5 1-13 0M-5 4-12 9M5-2 12-8M5 1 13 0M5 4 12 9" stroke="#111" stroke-width="1.6"/><circle cx="-1.5" cy="-9" r="1" fill="#f97316"/><circle cx="1.5" cy="-9" r="1" fill="#f97316"/></g><rect x="6" y="6" width="88" height="128" rx="8" fill="none" stroke="#f97316" stroke-width="1.5" opacity="0.8"/></svg>