<svg xmlns="http://www.w3.org/2000/svg" viewBox="0 0 100 140" preserveAspectRatio="xMidYMid slice"><defs><linearGradient id="g" x1="0" y1="0" x2="0" y2="1"><stop offset="0" stop-color="#fde68a"/><stop offset=".5" stop-color="#f59e0b"/><stop offset="1" stop-color="#92400e"/></linearGradient></defs><rect width="100" height="140" fill="#b91c1c"/><rect width="100" height="140" fill="#7f1d1d" opacity=".3"/><path d="M0 0H100V40Q50 62 0 40Z" fill="#991b1b"/><path d="M0 40Q50 62 100 40" fill="none" stroke="url(#g)" stroke-width="2"/><g transform="translate(22 104) scale(0.6)" fill="none" stroke="#fbbf24" stroke-width="2.5" stroke-linecap="round" opacity=".6"><path d="M-30 0C-34-12-22-20-14-14-12-26 6-28 10-16 18-24 32-16 26-4"/><path d="M-36 0H34"/></g><g transform="translate(78 118) scale(0.5)" fill="none" stroke="#fbbf24" stroke-width="2.5" stroke-linecap="round" opacity=".6"><path d="M-30 0C-34-12-22-20-14-14-12-26 6-28 10-16 18-24 32-16 26-4"/><path d="M-36 0H34"/></g><g transform="translate(80 22) scale(0.45)" fill="none" stroke="#fbbf24" stroke-width="2.5" stroke-linecap="round" opacity=".6"><path d="M-30 0C-34-12-22-20-14-14-12-26 6-28 10-16 18-24 32-16 26-4"/><path d="M-36 0H34"/></g><g transform="translate(20 20) scale(0.45)" fill="none" stroke="#fbbf24" stroke-width="2.5" stroke-linecap="round" opacity=".6"><path d="M-30 0C-34-12-22-20-14-14-12-26 6-28 10-16 18-24 32-16 26-4"/><path d="M-36 0H34"/></g><g transform="translate(50 76)"><circle r="18" fill="url(#g)" stroke="#78350f" stroke-width="1.2"/><circle r="14" fill="none" stroke="#92400e" stroke-width="1.2"/><rect x="-5" y="-5" width="10" height="10" fill="#b91c1c" stroke="#78350f"/></g><rect x="5" y="5" width="90" height="130" rx="7" fill="none" stroke="#fbbf24" stroke-width="1.8" opacity="1"/></svg>